/* XPM */
static const char *bannerapp_16[]={
"16 16 28 1",
"f c #000000",
"a c #00ff00",
"s c #0c0c0c",
"t c #1c1c1c",
"j c #1e1e1e",
"w c #222222",
"i c #262626",
"l c #2f2f2f",
"b c #585858",
"y c #5c5c5c",
"p c #626262",
"d c #6d6d6d",
"v c #707070",
"m c #767676",
"g c #7e7e7e",
"o c #b4b4b4",
"n c #b5b5b5",
"r c #c0c0c0",
"e c #c1c1c1",
"q c #cfcfcf",
"x c #dbdbdb",
"u c #e9e9e9",
"z c #efefef",
"k c #f5f5f5",
"h c #f8f8f8",
"c c #fefefe",
"# c #ff0000",
". c #ffffff",
"................",
"..#..........a..",
".###........aaa.",
"..#.........bac.",
"..d........efg..",
"..d.......hijk..",
".dl.......mfn...",
"..d......oap....",
"..d.....qaaa....",
"..d....rsta.....",
".dl..uvfwx......",
"..d..afyz.......",
"..dvaaa.........",
"..#..ad...d...#.",
".###ddldddldd###",
"..#...........#."};
