/* XPM */
static const char * bannerapp_xpm[] = {
"16 16 6 1",
" 	c None",
".	c #6D6D6D",
"+	c #FFFFFF",
"@	c #FF0000",
"#	c #00FF00",
"$	c #000000",
"................",
".++++++++++++++.",
".++@+++++++++++.",
".+@@@+++++++#++.",
".++@++++++++#++.",
".++$+++++++##++.",
".++$++++++##+++.",
".++$+++++##++++.",
".++$+++###+++++.",
".++$++##+++++++.",
".++$+##++++++++.",
".++@++++++++@++.",
".+@@@$$$$$$@@@+.",
".++@++++++++@++.",
".++++++++++++++.",
"................"};
