/* XPM */
static char * bannerapp_64[] = {
"64 64 74 1",
" 	c None",
".	c #FFFFFF",
"+	c #00FF00",
"@	c #FF0000",
"#	c #F2F2F2",
"$	c #7D7D7D",
"%	c #000000",
"&	c #E7E7E7",
"*	c #0A0A0A",
"=	c #686868",
"-	c #2D2D2D",
";	c #FCFCFC",
">	c #D7D7D7",
",	c #030303",
"'	c #B5B5B5",
")	c #4D4D4D",
"!	c #3F3F3F",
"~	c #FEFEFE",
"{	c #BBBBBB",
"]	c #C9C9C9",
"^	c #FBFBFB",
"/	c #2C2C2C",
"(	c #5C5C5C",
"_	c #929292",
":	c #E3E3E3",
"<	c #E8E8E8",
"[	c #0F0F0F",
"}	c #808080",
"|	c #212121",
"1	c #F6F6F6",
"2	c #B3B3B3",
"3	c #777777",
"4	c #BEBEBE",
"5	c #EBEBEB",
"6	c #1B1B1B",
"7	c #404040",
"8	c #4C4C4C",
"9	c #121212",
"0	c #E1E1E1",
"a	c #888888",
"b	c #B1B1B1",
"c	c #020202",
"d	c #6F6F6F",
"e	c #DADADA",
"f	c #0E0E0E",
"g	c #3C3C3C",
"h	c #F9F9F9",
"i	c #ECECEC",
"j	c #262626",
"k	c #F5F5F5",
"l	c #070707",
"m	c #4E4E4E",
"n	c #ABABAB",
"o	c #8B8B8B",
"p	c #909090",
"q	c #060606",
"r	c #DEDEDE",
"s	c #434343",
"t	c #7E7E7E",
"u	c #303030",
"v	c #848484",
"w	c #727272",
"x	c #F7F7F7",
"y	c #E9E9E9",
"z	c #9D9D9D",
"A	c #505050",
"B	c #2E2E2E",
"C	c #C7C7C7",
"D	c #1C1C1C",
"E	c #9F9F9F",
"F	c #333333",
"G	c #A3A3A3",
"H	c #7F7F7F",
"I	c #D6D6D6",
"................................................................",
"................................................................",
".......................................................+........",
".......@@.............................................+++.......",
"......@@@@...........................................+++++......",
".....@@@@@@.........................................+++++++.....",
"....@@@@@@@@.......................................+++++++++....",
"...@@@@@@@@@@.....................................+++++++++++...",
"...@@@@@@@@@@......................................+++++++++....",
"....@@@@@@@@........................................+++++++.....",
".....@@@@@@.........................................#+++++......",
"......@@@@..........................................$%+++.......",
".......@@..........................................&*%%+........",
".......%%..........................................=%%-;........",
".......%%.........................................>,%%'.........",
".......%%.........................................)%%!~.........",
".......%%........................................{%%%]..........",
".......%%.......................................^/%%(...........",
".......%%......................................._%%*:...........",
"......%%%%....................................+<[%%}............",
"......%%%%...................................+++%%|1............",
".......%%...................................+++++%2.............",
".......%%..................................+++++++..............",
".......%%.................................+++++++++.............",
".......%%.................................+++++++++.............",
".......%%..................................+++++++..............",
".......%%..................................3+++++...............",
".......%%.................................4%%+++................",
".......%%................................56%%7+.................",
".......%%...............................~8%%90..................",
".......%%...............................a%%%b...................",
"......%%%%.............................{c%%d....................",
"......%%%%............................ef%%gh....................",
".......%%............................ij%%6<.....................",
".......%%........................++.kg%%l]......................",
".......%%.......................++++m%%%n.......................",
".......%%......................++++++%%o........................",
".......%%.....................++++++++3~........................",
".......%%....................++++++++++.........................",
".......%%....................++++++++++.........................",
".......%%.....................++++++++..........................",
".......%%...................~pq++++++...........................",
".......%%..................rs%%%++++............................",
"......%%%%.....++........#t%%%%ue++.............................",
"......%%%%....++++.....ivc%%%cwx................................",
".......%%....++++++.yzA%%%%%BC..................................",
".......%%...++++++++%%%%%%DE;...................................",
".......%%..++++++++++%%%FGh.....................................",
".......%%..++++++++++gHI........................................",
".......%%...++++++++1...........................................",
".......%%....++++++.............................................",
".......@@.....++++.....................................@@.......",
"......@@@@.....++.....................................@@@@......",
".....@@@@@@..........................................@@@@@@.....",
"....@@@@@@@@.......%%..........%%..........%%.......@@@@@@@@....",
"...@@@@@@@@@@%%%%%%%%%%%%%%%%%%%%%%%%%%%%%%%%%%%%%%@@@@@@@@@@...",
"...@@@@@@@@@@%%%%%%%%%%%%%%%%%%%%%%%%%%%%%%%%%%%%%%@@@@@@@@@@...",
"....@@@@@@@@.......%%..........%%..........%%.......@@@@@@@@....",
".....@@@@@@..........................................@@@@@@.....",
"......@@@@............................................@@@@......",
".......@@..............................................@@.......",
"................................................................",
"................................................................",
"................................................................"};
