/* XPM */
static const char *bannerapp_32[]={
"32 32 49 1",
"d c #000000",
"a c #00ff00",
"t c #010101",
"Q c #020202",
"g c #070707",
"r c #0c0c0c",
"x c #0d0d0d",
"A c #0e0e0e",
"F c #0f0f0f",
"C c #121212",
"G c #212121",
"D c #272727",
"o c #282828",
"I c #292929",
"v c #2e2e2e",
"P c #2f2f2f",
"L c #333333",
"j c #343434",
"w c #404040",
"M c #474747",
"R c #565656",
"p c #575757",
"i c #5e5e5e",
"c c #7b7b7b",
"T c #828282",
"q c #858585",
"O c #878787",
"H c #8c8c8c",
"u c #959595",
"h c #a4a4a4",
"l c #c3c3c3",
"m c #c4c4c4",
"K c #c5c5c5",
"E c #c8c8c8",
"s c #d6d6d6",
"z c #d8d8d8",
"B c #d9d9d9",
"S c #dadada",
"U c #dedede",
"y c #e0e0e0",
"J c #e3e3e3",
"f c #e4e4e4",
"N c #efefef",
"b c #f0f0f0",
"e c #f8f8f8",
"n c #fafafa",
"k c #fdfdfd",
"# c #ff0000",
". c #ffffff",
"................................",
"...##......................a....",
"..####....................aaa...",
".######..................aaaaa..",
".######..................aaaaa..",
"..####...................baaa...",
"...##....................cdae...",
"...dd...................fgdh....",
"...dd...................idjk....",
"...dd..................lddm.....",
"...dd.................nodp......",
"..dddd................qdrf......",
"..dddd...............stdu.......",
"...dd...............avdwk.......",
"...dd..............aaaxy........",
"...dd.............aaaaa.........",
"...dd.............aaaaa.........",
"...dd............zAaaa..........",
"...dd...........BCdDa...........",
"..dddd.........EFdGf............",
"..dddd.......kHddIJ.............",
"...dd..aa...KLddMN..............",
"...dd.aaaaOPddgOk...............",
"...ddaaaaaadQRS.................",
"...ddaaaaaaTU...................",
"...##.aaaa.................##...",
"..####.aa..dd......dd.....####..",
".######dddddddddddddddddd######.",
".######dddddddddddddddddd######.",
"..####.....dd......dd.....####..",
"...##......................##...",
"................................"};
