/* XPM */
static char * cursor_eyedropper_xpm[] = {
"32 32 34 1",
" 	c #FFFFFF",
".	c #D5D5D5",
"+	c #000000",
"@	c #A7A7A7",
"#	c #A4A4A4",
"$	c #D3D3D3",
"%	c #A3A3A3",
"&	c #E4E4E4",
"*	c #C1C1C1",
"=	c #7A7A7A",
"-	c #6A6A6A",
";	c #6D6D6D",
">	c #2F2F2F",
",	c #929292",
"'	c #525252",
")	c #4F4F4F",
"!	c #E2E2E2",
"~	c #4C4C4C",
"{	c #909090",
"]	c #8D8D8D",
"^	c #FCFCFC",
"/	c #686868",
"(	c #E0E0E0",
"_	c #FDFDFD",
":	c #FBFBFB",
"<	c #DCDCDC",
"[	c #E5E5E5",
"}	c #DDDDDD",
"|	c #EAEAEA",
"1	c #E8E8E8",
"2	c #E7E7E7",
"3	c #E6E6E6",
"4	c #EEEEEE",
"5	c #060606",
"                                ",
"                                ",
"                                ",
"                                ",
"                                ",
"                                ",
"                                ",
"                     .+++@      ",
"                     +#$%+      ",
"                    &+*=-+      ",
"                  ++;>,')+      ",
"                  !+~{]++!      ",
"                 !+^+//!        ",
"                (+_:<++         ",
"               [+_:}+|+         ",
"              (+_:}+|           ",
"             (+_:}+1            ",
"            [+_:}+2             ",
"           (+_:}+!              ",
"          (+_:}+!               ",
"         3+_:}+2                ",
"        2+_:}+1                 ",
"        +_:}+2                  ",
"       !+:}+2                   ",
"       +:++4                    ",
"        5!                      ",
"                                ",
"                                ",
"                                ",
"                                ",
"                                ",
"                                "};
