/* XPM */
static const char * DigitSegment_xpm[] = {
"32 32 6 1",
" 	c None",
".	c #000200",
"+	c #000000",
"@	c #00FC00",
"#	c #00F800",
"$	c #00FF00",
"                                ",
" ..                             ",
" ..                             ",
" ..                        ++   ",
" ..                   @@@ ++    ",
" ..                   @@@++     ",
" ..                   @@@+      ",
" ..                @@@@@#@@@    ",
" ..                @@@@@@@@@    ",
" ..                @@@@@@@@@    ",
" ..             @@@@@#@@@       ",
" ..             @@@@@@@@@       ",
" ..             @@@@@@@@@       ",
" ..          @@@@@#@@@          ",
" ..          @@@@@@@@@          ",
" ..          @@@@@@@@@          ",
" ..       @@@@@#@@@             ",
" ..       @@@@@@@@@             ",
" ++       @@@@@@@@@             ",
" ++    @@@$$$@@@                ",
" ++    @@@$$$@@@                ",
" ++    @@@$$$@@@                ",
" ++ @@@@@#@@@                   ",
" ++ @@@@@@@@@                   ",
" ++ @@@@@@@@@                   ",
" ++  ++@@@                      ",
" ++ +++@@@                      ",
" ++    @@@                      ",
" ++                             ",
" ++++++++++++++++++++++++++++++ ",
" ++++++++++++++++++++++++++++++ ",
"                                "};
