/* XPM */
static const char * DigitCurve_xpm[] = {
"32 32 4 1",
" 	c None",
".	c #000200",
"+	c #0915F7",
"@	c #000000",
"                                ",
" ..                      +++    ",
" ..                      +++    ",
" ..                      +++    ",
" ..                   +++++++++ ",
" ..                   +++++++++ ",
" ..                   +++++++++ ",
" ..                    @@+++    ",
" ..                   @@@+++    ",
" ..                  @@@ +++    ",
" ..             +++ @@@         ",
" ..             +++@@@          ",
" ..             +++@@           ",
" ..          +++++++++          ",
" ..          +++++++++          ",
" ..          +++++++++          ",
" ..           @@+++             ",
" ..          @@@+++             ",
" @@         @@@ +++             ",
" @@    +++ @@@                  ",
" @@    +++@@@                   ",
" @@    +++@@                    ",
" @@ +++++++++                   ",
" @@ +++++++++                   ",
" @@ +++++++++                   ",
" @@    +++                      ",
" @@    +++                      ",
" @@    +++                      ",
" @@                             ",
" @@@@@@@@@@@@@@@@@@@@@@@@@@@@@@ ",
" @@@@@@@@@@@@@@@@@@@@@@@@@@@@@@ ",
"                                "};
