/* XPM */
static const char * DigitSelect_xpm[] = {
"17 21 3 1",
" 	c None",
".	c #000200",
"+	c #6D6D6D",
"                 ",
"                 ",
"    .+           ",
"    ..+          ",
"    ...+         ",
"    ....+        ",
"    .....+       ",
"    ......+      ",
"    .......+     ",
"    ........+    ",
"    .........    ",
"    ......+      ",
"    ......+      ",
"    ..+ ...      ",
"    .+  +..+     ",
"    .    ...     ",
"         +..+    ",
"          ...    ",
"          +.     ",
"                 ",
"                 "};
