/* XPM */
static const char * DigitGuideline_xpm[] = {
"32 32 3 1",
" 	c None",
".	c #FFC1CC",
"+	c #ECC5CC",
"            ........            ",
"         ..............         ",
"       .....   ..   .....       ",
"      ....     ..     ....      ",
"     ...       ..       ...     ",
"    ...        ..        ...    ",
"   ...         ..         ...   ",
"  ...          ..          ...  ",
"  ..           ..           ..  ",
" ...           ..           ... ",
" ..            ..            .. ",
" ..            ..            .. ",
"..             ..             ..",
"..             ..             ..",
"..             ..             ..",
"................................",
"..............................++",
"..             ..             ..",
"..             ..             ..",
"..             ..             ..",
" ..            ..            .. ",
" ..            ..            .. ",
" ...           ..           ... ",
"  ..           ..           ..  ",
"  ...          ..          ...  ",
"   ...         ..         ...   ",
"    ...        ..        ...    ",
"     ...       ..       ...     ",
"      ....     ..     ....      ",
"       .....   ..   .....       ",
"         ..............         ",
"            ........            "};
